PathFileType	4	(X/Y/Z)	RBDS020\RBDS020runT45.trc
DataRate	CameraRate	NumFrames	NumMarkers	Units	OrigDataRate	OrigDataStartFrame	OrigNumFrames
150.000000	150.000000	4	33	mm	150.000000	2812	4500
Frame#	Time	L.ASIS			L.Heel.Bottom			L.Heel.Lateral			L.Heel.Top			L.Iliac.Crest			L.MT1			L.MT5			L.PSIS			L.Shank.Bottom.Lateral			L.Shank.Bottom.Medial			L.Shank.Top.Lateral			L.Shank.Top.Medial			L.Thigh.Bottom.Lateral			L.Thigh.Bottom.Medial			L.Thigh.Top.Lateral			L.Thigh.Top.Medial			R.ASIS			R.ASY			R.Heel.Bottom			R.Heel.Lateral			R.Heel.Top			R.Iliac.Crest			R.MT1			R.MT5			R.PSIS			R.Shank.Bottom.Lateral			R.Shank.Bottom.Medial			R.Shank.Top.Lateral			R.Shank.Top.Medial			R.Thigh.Bottom.Lateral			R.Thigh.Bottom.Medial			R.Thigh.Top.Lateral			R.Thigh.Top.Medial			
		X1	Y1	Z1	X2	Y2	Z2	X3	Y3	Z3	X4	Y4	Z4	X5	Y5	Z5	X6	Y6	Z6	X7	Y7	Z7	X8	Y8	Z8	X9	Y9	Z9	X10	Y10	Z10	X11	Y11	Z11	X12	Y12	Z12	X13	Y13	Z13	X14	Y14	Z14	X15	Y15	Z15	X16	Y16	Z16	X17	Y17	Z17	X18	Y18	Z18	X19	Y19	Z19	X20	Y20	Z20	X21	Y21	Z21	X22	Y22	Z22	X23	Y23	Z23	X24	Y24	Z24	X25	Y25	Z25	X26	Y26	Z26	X27	Y27	Z27	X28	Y28	Z28	X29	Y29	Z29	X30	Y30	Z30	X31	Y31	Z31	X32	Y32	Z32	X33	Y33	Z33	

2813	18.74666666666667	2268.160782083469	986.488300999657	876.743677689087	2095.520194209556	31.43428676441557	973.4258878087219	2115.134257205343	53.00857510814961	927.7364398303936	2106.944110295306	78.5988364664224	972.6698044564403	2203.736629116962	1024.26018890678	848.1104999158092	2318.29713778413	48.79923605371093	974.1164509233115	2267.853205662656	39.28033167200909	873.8452738848202	2110.912568742844	1009.045183759894	961.7160076478364	2204.16548385341	159.2636735751949	893.5231554864121	2165.589969476168	181.6357239809261	927.3449214496289	2224.567748574615	233.9956889149285	869.6916719752337	2189.30928544616	256.0484173644407	904.31198197114	2276.56994459955	646.6379387282644	811.4211830399577	2220.408101567296	622.4225743641508	850.7781332212033	2228.424072408054	745.0379619263082	803.6982176743252	2177.156694886606	723.2541877822077	844.7634678567863	2284.311690872797	954.2939392852426	1108.164536625965	1893.003915819228	337.3816070178313	1052.152842827938	1857.046660745787	527.5641528313258	1021.737512938416	1868.504402726525	505.2748569366114	1070.15641948444	1898.044019445254	515.8810537932667	1025.3844845874	2238.87669833199	1002.75889788687	1144.971800335384	1853.095052965595	313.9307890786291	1005.733416801355	1840.31273978844	346.4132327529858	1110.19908883792	2121.046918302271	997.79401489286	1056.539691583542	2003.345788377057	454.3141483337229	1099.371595811598	2008.94607151352	494.6779037472558	1068.373935580133	2086.498334317936	458.4770243486144	1116.838443394297	2087.435651345583	501.9940092223886	1086.387133555757	2272.358552917361	576.2556401781549	1153.875788069826	2220.631680544966	556.4076454237835	1108.650715825616	2228.050635280851	677.325466902906	1159.226776102017	2179.078881836547	658.1484655266305	1115.866695112026	
2814	18.75333333333333	2266.274345988408	985.4880145574891	876.1430469138912	2065.436592844526	31.97153451777812	973.0870901675013	2084.916698030989	53.48425174759085	927.2575906289507	2076.635588113868	79.14764642196353	972.1298665144263	2201.015936493458	1022.789581055921	847.7698731436002	2287.644463166777	49.96951636558978	973.4621374682827	2237.40065891348	39.92410568226641	873.5810821072313	2109.064561683273	1008.369828855776	961.235737110301	2176.656347676954	159.1444317689378	893.0755074422684	2138.992827985455	182.9751630100156	926.9821351004854	2200.171330427431	233.0147728959609	869.4809674907382	2165.657039772428	256.426394569795	903.9966911495843	2266.600154004608	643.0514300845633	811.2258350329763	2209.78732211423	620.6574423313912	850.7161410483216	2221.727834136012	742.909359940028	803.8013130483296	2169.905056874514	722.7488262559826	845.0733445190486	2281.642500474234	955.3055604116278	1108.255768147618	1917.807634146516	328.0711884421823	1051.46132320197	1872.262638179735	517.0813312944582	1027.24523903077	1886.003972443569	494.083304528704	1074.647327868001	1913.793652664621	507.2019131932848	1029.741056549124	2234.045360046211	1002.343774801037	1145.418052031157	1878.005064040976	304.0104465702965	1005.181160147947	1865.960962507344	332.8203850529248	1110.640266440412	2118.483082494625	997.3216549877778	1055.93529742369	2023.387150102797	448.1010743345049	1100.543228391807	2027.103705693703	489.3918847396461	1070.415851056742	2106.570603920567	454.8396465402176	1117.026116543052	2105.486582387605	499.1036524816986	1087.611788898676	2285.722903762449	579.7511846265619	1152.260869969601	2234.545601102432	557.4256198097811	1107.392031741338	2236.314349939765	678.3940598085193	1158.35785779361	2187.820605540549	656.8522025701523	1115.457250759949	
2815	18.76	2264.883584279397	984.5687167899864	875.5115104652274	2035.218656168954	32.77266525063067	972.8374719591627	2054.617915773219	54.11976090446417	926.85089372189	2046.30758533453	79.94382621304825	971.6408301594644	2199.106123118061	1021.597506791968	847.300254228586	2256.975702124717	50.88990408350384	972.9630435072452	2206.846902551662	40.3353378607532	873.4406214816165	2107.841001688836	1008.263638366926	960.3939492383799	2148.658389337181	159.0844315050461	892.7449712771627	2111.957987723604	184.1644798032179	926.8257225744967	2174.957542209463	232.0571696928985	869.4640373273661	2141.187061121993	256.6476342317753	903.9203540761756	2255.771101611138	639.5329684133432	811.3061671865809	2198.175723574436	619.2662588094255	850.8163717643023	2214.66564442115	740.950098403377	804.0792339790221	2162.172033505023	722.6979046402802	845.4838687837274	2279.420267776879	956.9300343680492	1108.164715252417	1943.069685050615	318.008150544284	1050.775052821315	1887.240309279911	504.9520853140323	1032.530445517792	1903.318320524361	481.4383378431798	1078.86039427521	1929.250419675624	497.1307035315915	1033.966026219854	2229.909547340369	1002.781236407029	1145.685245530146	1903.568258256453	293.0655376562873	1004.584923681635	1892.18531282672	318.2868300664172	1110.882586905815	2116.501448836618	997.7021123196622	1055.097536307669	2043.175657299066	441.4449362294972	1101.644509943624	2044.727506791307	483.5467662857074	1072.370590039231	2126.235995649661	451.2837861509792	1117.155417278533	2122.843744985828	496.1489597608587	1088.772031752362	2298.664847797966	584.4156588266035	1150.485230737241	2248.206160709268	559.8143959231505	1105.859776482866	2244.387421789109	680.4533284315073	1157.478683146607	2196.517470804773	656.6935220741653	1114.945421755254	
2816	18.76666666666667	2264.003385495422	983.7241857666099	874.8418351997017	2004.86756093037	34.05453116446725	972.6707457826209	2024.274200924642	55.11188981928403	926.5186665476429	2016.028640018902	81.19487463781149	971.2019868668967	2198.158030093774	1020.737050280029	846.7215656998807	2226.317469927918	51.46644198663923	972.674948383259	2176.202413455125	40.52242670620439	873.4479107060673	2107.240267903221	1008.694926226991	959.2098903624604	2120.344089901962	159.3036563648099	892.5388950399653	2084.608603681711	185.4359417070054	926.8465123937031	2149.116595481446	231.3790367634261	869.6248270396326	2116.063147910441	256.9773435108394	904.0538264429974	2244.285838368306	636.2983624610002	811.6341100487167	2185.80726796619	618.4161396360181	851.0243536696933	2207.356310923893	739.2955838607007	804.4937110160892	2154.096657945811	723.1977622145915	845.92194059845	2277.718970412886	959.136050658881	1107.83742524405	1968.802622405394	307.3158819574257	1050.120446434167	1902.15478113996	491.182556839021	1037.429579942942	1920.561073618503	467.4070197044644	1082.689197551781	1944.554333091829	485.6585605054837	1037.930211263324	2226.663228469592	1004.06594947065	1145.745400237341	1929.840266863889	281.2235128013363	1003.966270402227	1919.00016720615	303.0478850340974	1110.945794801941	2115.126688592095	998.896461768798	1054.033607551064	2062.719884052372	434.3703641401631	1102.648321926685	2061.854189571545	477.1128037583751	1074.194667238913	2145.447149558509	447.7915975674616	1117.234635355107	2139.495038289073	493.05877849691	1089.854552701525	2311.086483492908	590.1309134163029	1148.639009471869	2261.492192265161	563.4753523084818	1104.155985348137	2252.229280147822	683.4450132276331	1156.63670454058	2205.10213015889	657.6222818126907	1114.392405618769	
